<svg width="14" height="14" viewBox="0 0 14 14" fill="none" xmlns="http://www.w3.org/2000/svg">
<path d="M11.3776 0C12.1015 0 12.7161 0.259259 13.2351 0.764132C13.7541 1.26901 14 1.89669 14 2.61988V11.3801C14 12.1033 13.7405 12.7173 13.2351 13.2359C12.7298 13.7544 12.1015 14 11.3776 14H9.64293V8.5692H11.4732L11.76 6.45419H9.64293V5.11696C9.64293 4.80312 9.71122 4.54386 9.86147 4.35283C10.0254 4.18908 10.3122 4.09357 10.6946 4.09357H11.8146V2.16959C11.2956 2.12865 10.7629 2.10136 10.1756 2.10136C9.34244 2.10136 8.68683 2.34698 8.19512 2.83821C7.70341 3.32943 7.48488 4.0117 7.48488 4.88499V6.45419H5.65463V8.5692H7.48488V14H2.62244C1.89853 14 1.2839 13.7407 0.76488 13.2359C0.245856 12.731 0 12.1033 0 11.3801V2.61988C0 1.89669 0.259514 1.28265 0.76488 0.764132C1.27025 0.245614 1.89853 0 2.62244 0H11.3776Z" fill="black"/>
</svg>
