<svg width="14" height="14" viewBox="0 0 14 14" fill="none" xmlns="http://www.w3.org/2000/svg">
<path d="M3.84369 0H10.1563C11.2084 0 12.1062 0.377246 12.8637 1.11776C13.6212 1.85828 14 2.76647 14 3.84231V10.1297C14 11.2056 13.6212 12.0998 12.8778 12.8543C12.1343 13.6088 11.2224 13.9721 10.1423 14H3.82966C2.77756 14 1.87976 13.6228 1.12224 12.8683C0.364729 12.1138 0 11.2056 0 10.1577V3.87026C0 2.79441 0.378758 1.88623 1.12224 1.14571C1.86573 0.40519 2.77756 0.0279441 3.84369 0ZM10.1563 12.7425C10.8858 12.7425 11.489 12.491 11.994 11.9741C12.499 11.4571 12.7655 10.8423 12.7936 10.1158V10.1437V3.85629C12.7936 3.12974 12.5411 2.51497 12.022 2.01198C11.503 1.50898 10.8858 1.24351 10.1563 1.24351H3.84369C3.11423 1.24351 2.49699 1.49501 1.99198 1.998C1.48697 2.501 1.22044 3.11577 1.22044 3.82834V10.1158C1.22044 10.8423 1.47295 11.4571 1.99198 11.9601C2.51102 12.4631 3.12826 12.7285 3.84369 12.7285H10.1563V12.7425ZM3.38076 6.97205C3.38076 5.99401 3.73146 5.14172 4.43287 4.42914C5.13427 3.71657 5.98998 3.36727 7 3.36727C8.01002 3.39521 8.86573 3.74451 9.56713 4.44311C10.2685 5.14172 10.6192 5.98004 10.6192 6.95808C10.6192 7.96407 10.2685 8.81637 9.56713 9.51497C8.86573 10.2136 8.01002 10.5768 7 10.5768C5.98998 10.5768 5.13427 10.2275 4.43287 9.52894C3.73146 8.83034 3.38076 7.97804 3.38076 6.97205ZM5.33066 5.30938C4.86774 5.75649 4.62926 6.31537 4.62926 6.97205C4.62926 7.62874 4.85371 8.18762 5.31663 8.6487C5.77956 9.10978 6.34068 9.33333 7 9.33333C7.65932 9.33333 8.22044 9.10978 8.68337 8.6487C9.14629 8.21557 9.37074 7.65669 9.37074 6.97205C9.37074 6.31537 9.14629 5.75649 8.68337 5.29541C8.22044 4.83433 7.65932 4.61078 7 4.61078C6.34068 4.61078 5.77956 4.8483 5.33066 5.30938ZM10.7876 2.31936C10.2826 2.31936 9.97395 2.57086 9.86172 3.07385C9.79158 3.5489 9.98798 3.8982 10.4228 4.09381C10.8577 4.26148 11.2365 4.1497 11.5451 3.73054C11.8116 3.31138 11.7695 2.93413 11.4188 2.58483C11.2365 2.41717 11.0261 2.31936 10.7876 2.31936Z" fill="black"/>
</svg>
