<svg width="15" height="10" viewBox="0 0 15 10" fill="none" xmlns="http://www.w3.org/2000/svg">
<path d="M3.09619 0H11.9038C12.7755 0 13.512 0.285714 14.0982 0.857143C14.6844 1.42857 15 2.12857 15 2.94286V7.05714C15 7.85714 14.6994 8.55714 14.0982 9.12857C13.497 9.7 12.7605 10 11.9038 10H3.09619C2.22445 10 1.48798 9.71429 0.901804 9.12857C0.315632 8.54286 0 7.85714 0 7.05714V2.94286C0 2.11429 0.300602 1.41429 0.901804 0.857143C1.50301 0.3 2.23948 0 3.09619 0ZM5.68136 7.07143L9.76954 5.2C9.81463 5.15714 9.84469 5.12857 9.84469 5.1C9.84469 5.05714 9.81463 5.01429 9.76954 4.97143L5.68136 2.95714C5.60621 2.95714 5.56112 2.97143 5.54609 2.98571C5.501 2.98571 5.47094 3.02857 5.47094 3.11429V6.92857C5.47094 7 5.501 7.04286 5.54609 7.05714C5.57615 7.11429 5.62124 7.11429 5.68136 7.07143Z" fill="black"/>
</svg>
