<?xml version="1.0" encoding="utf-8"?>
<!-- Generator: Adobe Illustrator 21.0.0, SVG Export Plug-In . SVG Version: 6.00 Build 0)  -->
<svg version="1.1" xmlns="http://www.w3.org/2000/svg" xmlns:xlink="http://www.w3.org/1999/xlink" x="0px" y="0px"
	 viewBox="0 0 40 40" style="enable-background:new 0 0 40 40;" xml:space="preserve">
<style type="text/css">
	.st0{fill:#FFFFFF;}
</style>
<g>
	<path id="Facebook" class="st0" d="M18,13c0,0.6,0,3.2,0,3.2h-2.3v3.9H18v11.4h4.7V20.1h3.2c0,0,0.3-1.8,0.4-3.9
		c-0.4,0-3.6,0-3.6,0s0-2.2,0-2.6c0-0.4,0.5-0.9,1-0.9c0.5,0,1.6,0,2.6,0c0-0.5,0-2.3,0-4c-1.3,0-2.8,0-3.5,0
		C17.9,8.6,18,12.5,18,13z"/>
</g>
</svg>
