<?xml version="1.0" encoding="utf-8"?>
<!-- Generator: Adobe Illustrator 21.0.0, SVG Export Plug-In . SVG Version: 6.00 Build 0)  -->
<svg version="1.1" xmlns="http://www.w3.org/2000/svg" xmlns:xlink="http://www.w3.org/1999/xlink" x="0px" y="0px"
	 viewBox="0 0 40 40" style="enable-background:new 0 0 40 40;" xml:space="preserve">
<style type="text/css">
	.st0{fill:#FFFFFF;}
</style>
<g>
	<path class="st0" d="M25.4,12h-9c-2.6,0-4.4,2.1-4.4,4.7V18h5.8c0.8-1,1.9-1.3,3.1-1.3S23.2,17,24,18h6v-1.3C30,14.1,28,12,25.4,12
		z"/>
	<path class="st0" d="M25.2,20.6c0,2.4-1.9,4.4-4.3,4.4s-4.3-2.1-4.3-4.4c0-0.5,0.1-0.6,0.3-1.6H12v6.7c0,2.6,1.8,4.3,4.4,4.3h9
		c2.6,0,4.6-1.7,4.6-4.3V19h-5C25.1,20,25.2,20.1,25.2,20.6z"/>
	<circle class="st0" cx="20.9" cy="20.8" r="2.8"/>
</g>
</svg>
